<?xml version="1.0" encoding="UTF-8" ?>
<!DOCTYPE svg PUBLIC "-//W3C//DTD SVG 1.1//EN" "http://www.w3.org/Graphics/SVG/1.1/DTD/svg11.dtd">
<svg width="100pt" height="100pt" viewBox="0 0 100 100" version="1.1" xmlns="http://www.w3.org/2000/svg">
<g id="#000000ff">
<path fill="#000000" opacity="1.00" d=" M 4.61 0.00 L 75.10 0.00 C 77.33 0.82 79.66 2.42 79.83 5.02 C 80.29 10.67 79.86 16.34 80.00 22.00 C 78.69 20.62 77.31 19.31 76.00 17.94 C 75.91 13.66 76.28 9.36 75.79 5.10 C 74.76 3.50 72.63 4.19 71.06 3.97 C 49.35 4.11 27.64 3.85 5.95 4.09 C 3.86 4.00 3.99 6.51 3.99 7.94 C 4.01 35.98 4.01 64.03 3.99 92.07 C 3.98 93.52 3.87 96.00 5.97 95.91 C 27.66 96.15 49.38 95.89 71.08 96.03 C 72.64 95.80 74.85 96.53 75.80 94.84 C 76.29 90.59 75.90 86.29 75.99 82.02 C 77.30 80.66 78.68 79.37 79.99 78.00 C 79.87 83.67 80.29 89.36 79.82 95.01 C 79.66 97.52 77.41 99.00 75.37 100.00 L 4.92 100.00 C 2.62 99.29 0.91 97.60 0.00 95.40 L 0.00 4.88 C 0.72 2.60 2.42 0.90 4.61 0.00 Z" />
<path fill="#000000" opacity="1.00" d=" M 74.60 29.41 C 73.24 28.10 75.04 26.57 75.84 25.57 C 84.24 33.11 92.02 41.35 100.00 49.34 L 100.00 50.66 C 93.24 57.68 86.17 64.41 79.37 71.39 C 78.13 72.40 77.05 74.18 75.22 73.87 C 73.51 73.20 73.76 71.00 75.05 70.04 C 80.99 63.97 87.08 58.05 93.05 52.01 C 73.34 51.92 53.62 52.13 33.91 51.91 C 31.29 52.13 31.32 47.81 33.96 48.08 C 53.65 47.88 73.35 48.07 93.05 47.99 C 86.95 41.75 80.59 35.75 74.60 29.41 Z" />
</g>
</svg>
