<svg width="246" height="129" viewBox="0 0 246 129" fill="none" xmlns="http://www.w3.org/2000/svg">
<path d="M3.77273 90.7273L10.6818 110.318H10.9545L17.8636 90.7273H20.8182L12.2727 114H9.36364L0.818182 90.7273H3.77273ZM24.4432 114V90.7273H38.4886V93.2273H27.2614V101.091H37.7614V103.591H27.2614V111.5H38.6705V114H24.4432ZM43.5682 114V90.7273H46.3864V111.5H57.2045V114H43.5682ZM80.2983 102.364C80.2983 104.818 79.8551 106.939 78.9688 108.727C78.0824 110.515 76.8665 111.894 75.321 112.864C73.7756 113.833 72.0104 114.318 70.0256 114.318C68.0407 114.318 66.2756 113.833 64.7301 112.864C63.1847 111.894 61.9688 110.515 61.0824 108.727C60.196 106.939 59.7528 104.818 59.7528 102.364C59.7528 99.9091 60.196 97.7879 61.0824 96C61.9688 94.2121 63.1847 92.8333 64.7301 91.8636C66.2756 90.8939 68.0407 90.4091 70.0256 90.4091C72.0104 90.4091 73.7756 90.8939 75.321 91.8636C76.8665 92.8333 78.0824 94.2121 78.9688 96C79.8551 97.7879 80.2983 99.9091 80.2983 102.364ZM77.571 102.364C77.571 100.348 77.2339 98.6477 76.5597 97.2614C75.893 95.875 74.9877 94.8258 73.8438 94.1136C72.7074 93.4015 71.4347 93.0455 70.0256 93.0455C68.6165 93.0455 67.34 93.4015 66.196 94.1136C65.0597 94.8258 64.1544 95.875 63.4801 97.2614C62.8134 98.6477 62.4801 100.348 62.4801 102.364C62.4801 104.379 62.8134 106.08 63.4801 107.466C64.1544 108.852 65.0597 109.902 66.196 110.614C67.34 111.326 68.6165 111.682 70.0256 111.682C71.4347 111.682 72.7074 111.326 73.8438 110.614C74.9877 109.902 75.893 108.852 76.5597 107.466C77.2339 106.08 77.571 104.379 77.571 102.364ZM85.0369 114V90.7273H92.9006C94.7188 90.7273 96.2112 91.0379 97.3778 91.6591C98.5445 92.2727 99.4081 93.1174 99.9688 94.1932C100.529 95.2689 100.81 96.4924 100.81 97.8636C100.81 99.2348 100.529 100.451 99.9688 101.511C99.4081 102.572 98.5483 103.405 97.3892 104.011C96.2301 104.61 94.7491 104.909 92.946 104.909H86.5824V102.364H92.8551C94.0975 102.364 95.0975 102.182 95.8551 101.818C96.6203 101.455 97.1733 100.939 97.5142 100.273C97.8627 99.5985 98.0369 98.7955 98.0369 97.8636C98.0369 96.9318 97.8627 96.1174 97.5142 95.4205C97.1657 94.7235 96.6089 94.1856 95.8438 93.8068C95.0786 93.4205 94.0672 93.2273 92.8097 93.2273H87.8551V114H85.0369ZM95.9915 103.545L101.719 114H98.446L92.8097 103.545H95.9915ZM106.46 114H103.506L112.051 90.7273H114.96L123.506 114H120.551L113.597 94.4091H113.415L106.46 114ZM107.551 104.909H119.46V107.409H107.551V104.909ZM154.858 98H152.04C151.873 97.1894 151.581 96.4773 151.165 95.8636C150.756 95.25 150.256 94.7348 149.665 94.3182C149.081 93.8939 148.434 93.5758 147.722 93.3636C147.009 93.1515 146.267 93.0455 145.494 93.0455C144.085 93.0455 142.809 93.4015 141.665 94.1136C140.528 94.8258 139.623 95.875 138.949 97.2614C138.282 98.6477 137.949 100.348 137.949 102.364C137.949 104.379 138.282 106.08 138.949 107.466C139.623 108.852 140.528 109.902 141.665 110.614C142.809 111.326 144.085 111.682 145.494 111.682C146.267 111.682 147.009 111.576 147.722 111.364C148.434 111.152 149.081 110.837 149.665 110.42C150.256 109.996 150.756 109.477 151.165 108.864C151.581 108.242 151.873 107.53 152.04 106.727H154.858C154.646 107.917 154.259 108.981 153.699 109.92C153.138 110.86 152.441 111.659 151.608 112.318C150.775 112.97 149.839 113.466 148.801 113.807C147.771 114.148 146.669 114.318 145.494 114.318C143.509 114.318 141.744 113.833 140.199 112.864C138.653 111.894 137.438 110.515 136.551 108.727C135.665 106.939 135.222 104.818 135.222 102.364C135.222 99.9091 135.665 97.7879 136.551 96C137.438 94.2121 138.653 92.8333 140.199 91.8636C141.744 90.8939 143.509 90.4091 145.494 90.4091C146.669 90.4091 147.771 90.5795 148.801 90.9205C149.839 91.2614 150.775 91.7614 151.608 92.4205C152.441 93.072 153.138 93.8674 153.699 94.8068C154.259 95.7386 154.646 96.803 154.858 98ZM159.412 114V90.7273H167.276C169.094 90.7273 170.586 91.0379 171.753 91.6591C172.92 92.2727 173.783 93.1174 174.344 94.1932C174.904 95.2689 175.185 96.4924 175.185 97.8636C175.185 99.2348 174.904 100.451 174.344 101.511C173.783 102.572 172.923 103.405 171.764 104.011C170.605 104.61 169.124 104.909 167.321 104.909H160.957V102.364H167.23C168.473 102.364 169.473 102.182 170.23 101.818C170.995 101.455 171.548 100.939 171.889 100.273C172.238 99.5985 172.412 98.7955 172.412 97.8636C172.412 96.9318 172.238 96.1174 171.889 95.4205C171.541 94.7235 170.984 94.1856 170.219 93.8068C169.454 93.4205 168.442 93.2273 167.185 93.2273H162.23V114H159.412ZM170.366 103.545L176.094 114H172.821L167.185 103.545H170.366ZM179.881 114V90.7273H193.926V93.2273H182.699V101.091H193.199V103.591H182.699V111.5H194.108V114H179.881ZM211.733 96.5455C211.597 95.3939 211.044 94.5 210.074 93.8636C209.104 93.2273 207.915 92.9091 206.506 92.9091C205.475 92.9091 204.574 93.0758 203.801 93.4091C203.036 93.7424 202.438 94.2008 202.006 94.7841C201.581 95.3674 201.369 96.0303 201.369 96.7727C201.369 97.3939 201.517 97.928 201.812 98.375C202.116 98.8144 202.502 99.1818 202.972 99.4773C203.441 99.7652 203.934 100.004 204.449 100.193C204.964 100.375 205.438 100.523 205.869 100.636L208.233 101.273C208.839 101.432 209.513 101.652 210.256 101.932C211.006 102.212 211.722 102.595 212.403 103.08C213.093 103.557 213.661 104.17 214.108 104.92C214.555 105.67 214.778 106.591 214.778 107.682C214.778 108.939 214.449 110.076 213.79 111.091C213.138 112.106 212.184 112.913 210.926 113.511C209.676 114.11 208.157 114.409 206.369 114.409C204.703 114.409 203.259 114.14 202.04 113.602C200.828 113.064 199.873 112.314 199.176 111.352C198.487 110.39 198.097 109.273 198.006 108H200.915C200.991 108.879 201.286 109.606 201.801 110.182C202.324 110.75 202.983 111.174 203.778 111.455C204.581 111.727 205.445 111.864 206.369 111.864C207.445 111.864 208.411 111.689 209.267 111.341C210.123 110.985 210.801 110.492 211.301 109.864C211.801 109.227 212.051 108.485 212.051 107.636C212.051 106.864 211.835 106.235 211.403 105.75C210.972 105.265 210.403 104.871 209.699 104.568C208.994 104.265 208.233 104 207.415 103.773L204.551 102.955C202.733 102.432 201.294 101.686 200.233 100.716C199.172 99.7462 198.642 98.4773 198.642 96.9091C198.642 95.6061 198.994 94.4697 199.699 93.5C200.411 92.5227 201.366 91.7652 202.562 91.2273C203.767 90.6818 205.112 90.4091 206.597 90.4091C208.097 90.4091 209.43 90.678 210.597 91.2159C211.763 91.7462 212.688 92.4735 213.369 93.3977C214.059 94.322 214.422 95.3712 214.46 96.5455H211.733ZM218.139 93.2273V90.7273H235.594V93.2273H228.276V114H225.457V93.2273H218.139Z" fill="#F1F0F0"/>
<path d="M141.939 44.1844V17.3902L125.881 4.23036L125.612 0L105.473 18.4917L105.336 44.8113L92 49.4987V73H155V50.149L141.939 44.1844ZM93.7706 67.4806V62.389L98.7569 59.6468C98.7569 62.0726 98.7569 64.428 98.7823 65.8342L93.7706 67.4806ZM98.7823 57.0629L93.7706 59.6703V54.5786L98.8027 52.1763C98.8027 53.272 98.8027 55.0767 98.7823 57.0629ZM103.87 64.1936L100.721 65.2072L100.629 58.6273L103.87 56.8696V64.1936ZM103.87 54.397L100.604 56.0962L100.517 51.3443L103.85 49.7506L103.87 54.397ZM122.264 49.7506L107.34 59.9574V54.3208L122.264 42.2274V49.7506ZM122.264 37.5283L107.33 49.7213V43.3582L122.253 32.4601L122.264 37.5283ZM122.264 27.6028L107.34 38.4423V32.8526L122.264 22.722V27.6028ZM122.264 17.7593L107.33 28.7805V21.8842L122.253 10.3943L122.264 17.7593ZM137.66 69.1388L125.413 69.7247V9.45092L137.66 17.5777V69.1388ZM151.245 69.7247L143.257 65.6232V59.4359L151.24 63.6663L151.245 69.7247ZM151.245 59.5179L143.257 55.0767V49.7506L151.24 53.0376L151.245 59.5179Z" fill="#F1F0F0"/>
</svg>
