<?xml version="1.0" encoding="UTF-8" ?>
<!DOCTYPE svg PUBLIC "-//W3C//DTD SVG 1.1//EN" "http://www.w3.org/Graphics/SVG/1.1/DTD/svg11.dtd">
<svg width="50pt" height="50pt" viewBox="0 0 50 50" version="1.1" xmlns="http://www.w3.org/2000/svg">
<g id="#000000ff">
<path fill="#000000" opacity="1.00" d=" M 0.00 7.00 C 16.67 7.00 33.33 7.00 50.00 7.00 L 50.00 43.00 C 33.33 43.00 16.67 43.00 0.00 43.00 L 0.00 7.00 M 1.97 9.01 C 2.00 9.67 2.06 10.98 2.10 11.64 C 8.64 17.18 14.99 22.93 21.50 28.49 C 23.18 30.18 26.08 30.52 27.94 28.92 C 34.69 23.28 41.18 17.33 47.91 11.66 C 47.94 11.00 48.00 9.67 48.03 9.01 C 32.68 9.00 17.32 9.00 1.97 9.01 M 2.01 14.17 C 1.98 21.43 2.01 28.69 2.00 35.95 C 6.40 32.55 10.72 29.05 15.10 25.64 C 10.81 21.73 6.40 17.97 2.01 14.17 M 34.92 25.46 C 39.11 29.17 43.68 32.41 48.00 35.96 C 48.00 28.70 48.00 21.43 48.00 14.17 C 43.63 17.92 39.37 21.81 34.92 25.46 M 2.09 38.37 C 2.06 39.02 2.00 40.34 1.97 40.99 C 17.33 41.00 32.68 41.00 48.04 40.99 C 48.00 40.32 47.92 38.98 47.88 38.31 C 42.99 34.60 38.21 30.72 33.37 26.94 C 30.84 28.98 28.50 31.97 24.96 32.02 C 21.49 31.93 19.17 29.06 16.77 26.96 C 11.77 30.62 7.07 34.67 2.09 38.37 Z" />
</g>
</svg>
